<?xml version="1.0" encoding="UTF-8" standalone="no"?>
<!-- Created with Inkscape (http://www.inkscape.org/) -->

<svg
   width="64.092751mm"
   height="38.835541mm"
   viewBox="0 0 64.092751 38.835541"
   version="1.1"
   id="svg1121"
   inkscape:version="1.2.1 (9c6d41e410, 2022-07-14, custom)"
   sodipodi:docname="kaigi-on-rails-2022-light.svg"
   xmlns:inkscape="http://www.inkscape.org/namespaces/inkscape"
   xmlns:sodipodi="http://sodipodi.sourceforge.net/DTD/sodipodi-0.dtd"
   xmlns="http://www.w3.org/2000/svg"
   xmlns:svg="http://www.w3.org/2000/svg">
  <sodipodi:namedview
     id="namedview1123"
     pagecolor="#505050"
     bordercolor="#eeeeee"
     borderopacity="1"
     inkscape:showpageshadow="0"
     inkscape:pageopacity="0"
     inkscape:pagecheckerboard="0"
     inkscape:deskcolor="#505050"
     inkscape:document-units="mm"
     showgrid="false"
     inkscape:zoom="0.2102413"
     inkscape:cx="118.91098"
     inkscape:cy="73.72481"
     inkscape:window-width="1128"
     inkscape:window-height="683"
     inkscape:window-x="0"
     inkscape:window-y="0"
     inkscape:window-maximized="1"
     inkscape:current-layer="layer1" />
  <defs
     id="defs1118" />
  <g
     inkscape:label="Layer 1"
     inkscape:groupmode="layer"
     id="layer1"
     transform="translate(-72.407015,-129.71147)">
    <g
       id="g591"
       transform="matrix(0.26458333,0,0,0.26458333,42.366224,36.194489)"
       inkscape:groupmode="layer">
      <g
         id="g551">
        <path
           class="l"
           d="m 274.89,353.46 h -4.02 l -45.72,45.48 c -1.66,1.65 -1.62,4.29 0.1,5.88 1.69,1.58 4.38,1.56 6.04,-0.02 l 30.89,-30.73 c 1.67,-1.66 3.89,-2.51 6.11,-2.53 0.74,0 1.48,0.08 2.2,0.25 1.43,0.33 2.79,1.03 3.92,2.09 1.13,1.06 1.91,2.34 2.3,3.7 0.41,1.36 0.45,2.8 0.11,4.17 -0.33,1.38 -1.04,2.69 -2.11,3.8 l -37.68,37.48 c -1.82,1.81 -4.67,2.08 -6.79,0.77 -0.24,-0.14 -0.46,-0.31 -0.68,-0.5 l 5.09,5.06 40.79,-40.55 0.73,-0.72 c 1.69,-1.68 2.67,-3.77 2.95,-5.93 0.22,-1.64 0.03,-3.32 -0.57,-4.89 -0.54,-1.43 -1.42,-2.77 -2.63,-3.89 -1.21,-1.13 -2.63,-1.93 -4.13,-2.4 -1.65,-0.53 -3.4,-0.66 -5.1,-0.39 -2.24,0.34 -4.37,1.35 -6.06,3.03 l -30.82,30.66 c -0.43,0.42 -1,0.64 -1.57,0.63 -0.54,0 -1.07,-0.2 -1.49,-0.58 -0.43,-0.4 -0.65,-0.93 -0.66,-1.46 0,-0.53 0.19,-1.07 0.61,-1.48 l 30.82,-30.66 c 2.57,-2.56 5.89,-4.02 9.32,-4.35 0.74,-0.08 1.49,-0.1 2.24,-0.07 3.56,0.15 7.08,1.51 9.84,4.08 2.31,2.15 3.75,4.83 4.32,7.65 0.18,0.91 0.27,1.83 0.28,2.75 l 3.57,-3.55 z"
           id="path547"
           style="fill:#eb0064" />
        <path
           class="l"
           d="m 250.45,358.81 c 0.41,-0.41 0.96,-0.62 1.52,-0.63 0.55,0 1.11,0.18 1.54,0.58 0.47,0.44 0.69,1.04 0.65,1.62 -0.03,0.48 -0.23,0.95 -0.6,1.32 l -42.97,42.74 18.36,18.26 c -0.1,-0.11 -0.19,-0.22 -0.27,-0.34 -1.43,-1.99 -1.24,-4.75 0.58,-6.56 l 37.59,-37.39 c 0.83,-0.82 2.2,-0.84 3.06,-0.05 0.86,0.8 0.88,2.12 0.05,2.94 l -37.59,37.39 c -0.41,0.41 -0.4,1.07 0.02,1.47 0.43,0.4 1.11,0.39 1.53,-0.02 l 37.59,-37.39 c 1.66,-1.65 1.62,-4.29 -0.1,-5.88 -1.69,-1.58 -4.38,-1.56 -6.04,0.02 l -30.89,30.73 c -1.67,1.66 -3.88,2.51 -6.11,2.53 -0.74,0 -1.48,-0.08 -2.2,-0.25 -1.43,-0.33 -2.78,-1.03 -3.92,-2.09 -1.73,-1.61 -2.61,-3.74 -2.64,-5.89 -0.02,-2.12 0.78,-4.24 2.43,-5.88 l 42.81,-42.59 h -70.43 l -12.2,22.78 25.36,25.22 z"
           id="path549"
           style="fill:#eb0064" />
      </g>
      <g
         id="g589">
        <g
           id="g577">
          <path
             class="e"
             d="m 123.13,457.75 -3.28,3.53 v 8.75 h -6.31 v -30.62 h 6.31 v 13.88 l 2.78,-3.81 7.8,-10.07 h 7.76 l -10.87,13.61 11.19,17.01 H 131 Z"
             id="path553"
             style="fill:#33334b" />
          <path
             class="e"
             d="m 153.24,470.04 c -0.31,-0.64 -0.51,-1.33 -0.61,-2.04 -0.72,0.81 -1.6,1.45 -2.6,1.87 -0.99,0.43 -2.07,0.63 -3.14,0.59 -2.02,0.07 -4,-0.62 -5.54,-1.93 -0.71,-0.6 -1.27,-1.35 -1.65,-2.19 -0.38,-0.84 -0.57,-1.76 -0.55,-2.69 0,-2.41 0.89,-4.26 2.68,-5.55 1.79,-1.29 4.37,-1.94 7.75,-1.96 h 2.79 v -1.3 c 0.05,-0.91 -0.24,-1.81 -0.81,-2.52 -0.54,-0.63 -1.39,-0.95 -2.56,-0.95 -0.87,-0.05 -1.72,0.21 -2.41,0.74 -0.29,0.25 -0.52,0.56 -0.67,0.91 -0.15,0.35 -0.22,0.73 -0.2,1.11 h -6.08 c 0,-1.32 0.43,-2.6 1.22,-3.66 0.89,-1.18 2.08,-2.09 3.45,-2.64 1.59,-0.66 3.29,-0.98 5.01,-0.96 2.8,0 5.03,0.7 6.68,2.11 1.65,1.41 2.47,3.39 2.47,5.94 v 9.86 c 0.01,2.16 0.31,3.79 0.9,4.9 v 0.36 h -6.14 z m -5.03,-4.23 c 0.86,0 1.72,-0.2 2.48,-0.6 0.71,-0.35 1.3,-0.92 1.68,-1.61 v -3.91 h -2.27 c -3.04,0 -4.66,1.05 -4.86,3.15 l -0.02,0.36 c 0,0.35 0.06,0.7 0.19,1.02 0.14,0.32 0.34,0.61 0.6,0.85 0.61,0.52 1.39,0.78 2.19,0.74 z"
             id="path555"
             style="fill:#33334b" />
          <path
             class="e"
             d="m 162.67,441.39 c -0.01,-0.42 0.06,-0.83 0.22,-1.22 0.16,-0.39 0.39,-0.74 0.7,-1.03 0.7,-0.57 1.58,-0.88 2.49,-0.88 0.91,0 1.78,0.31 2.49,0.88 0.3,0.29 0.54,0.64 0.7,1.03 0.16,0.39 0.24,0.8 0.22,1.22 0.01,0.42 -0.06,0.84 -0.22,1.24 -0.16,0.39 -0.4,0.74 -0.71,1.03 -0.7,0.57 -1.57,0.88 -2.47,0.88 -0.9,0 -1.77,-0.31 -2.47,-0.88 -0.31,-0.29 -0.55,-0.64 -0.71,-1.03 -0.16,-0.39 -0.24,-0.81 -0.22,-1.24 z m 6.46,28.64 h -6.1 v -22.75 h 6.1 z"
             id="path557"
             style="fill:#33334b" />
          <path
             class="e"
             d="m 172.82,458.49 c 0,-3.49 0.83,-6.3 2.49,-8.43 0.78,-1.03 1.8,-1.86 2.97,-2.42 1.17,-0.56 2.46,-0.82 3.75,-0.78 2.5,0 4.44,0.86 5.83,2.57 l 0.25,-2.15 h 5.51 v 22 c 0.04,1.83 -0.43,3.63 -1.36,5.2 -0.91,1.48 -2.24,2.65 -3.82,3.36 -1.81,0.81 -3.78,1.2 -5.76,1.16 -1.68,0 -3.34,-0.34 -4.88,-1 -1.4,-0.53 -2.64,-1.42 -3.6,-2.57 l 2.69,-3.7 c 0.67,0.8 1.52,1.45 2.47,1.89 0.95,0.44 1.99,0.66 3.04,0.66 1.61,0 2.87,-0.43 3.76,-1.29 0.9,-0.86 1.35,-2.09 1.35,-3.67 v -1.22 c -0.69,0.78 -1.54,1.4 -2.5,1.81 -0.96,0.41 -1.99,0.6 -3.03,0.57 -1.28,0.03 -2.55,-0.24 -3.71,-0.8 -1.15,-0.56 -2.16,-1.38 -2.93,-2.41 -1.69,-2.14 -2.53,-4.97 -2.53,-8.51 v -0.25 z m 6.08,0.45 c 0,2.06 0.41,3.68 1.24,4.86 0.37,0.56 0.88,1.01 1.48,1.32 0.6,0.31 1.26,0.46 1.93,0.44 1.85,0 3.18,-0.7 3.98,-2.09 v -9.58 c -0.81,-1.39 -2.12,-2.08 -3.93,-2.09 -0.68,-0.02 -1.35,0.13 -1.95,0.45 -0.6,0.31 -1.11,0.78 -1.49,1.34 -0.83,1.19 -1.25,2.98 -1.25,5.35 z"
             id="path559"
             style="fill:#33334b" />
          <path
             class="e"
             d="m 197.81,441.39 c -0.01,-0.42 0.06,-0.83 0.22,-1.22 0.16,-0.39 0.39,-0.74 0.7,-1.03 0.7,-0.57 1.58,-0.88 2.49,-0.88 0.91,0 1.78,0.31 2.49,0.88 0.3,0.29 0.54,0.64 0.7,1.03 0.16,0.39 0.24,0.8 0.22,1.22 0.01,0.42 -0.06,0.84 -0.22,1.24 -0.16,0.39 -0.4,0.74 -0.71,1.03 -0.7,0.57 -1.57,0.88 -2.47,0.88 -0.9,0 -1.77,-0.31 -2.47,-0.88 -0.31,-0.29 -0.55,-0.64 -0.71,-1.03 -0.16,-0.39 -0.24,-0.81 -0.22,-1.24 z m 6.46,28.64 h -6.1 v -22.75 h 6.1 z"
             id="path561"
             style="fill:#33334b" />
          <path
             class="e"
             d="m 212.59,458.45 c -0.04,-2.09 0.41,-4.15 1.3,-6.04 0.82,-1.71 2.12,-3.14 3.75,-4.1 1.73,-0.99 3.7,-1.49 5.69,-1.45 3.07,0 5.58,0.94 7.52,2.82 1.94,1.88 3.02,4.43 3.25,7.66 l 0.04,1.56 c 0,3.49 -0.97,6.29 -2.92,8.4 -1.95,2.11 -4.56,3.17 -7.84,3.17 -3.28,0 -5.9,-1.05 -7.85,-3.15 -1.96,-2.1 -2.93,-4.96 -2.93,-8.58 v -0.27 z m 6.08,0.43 c 0,2.16 0.41,3.82 1.22,4.96 0.41,0.53 0.93,0.96 1.53,1.26 0.6,0.3 1.26,0.45 1.93,0.46 0.67,0 1.33,-0.15 1.93,-0.44 0.6,-0.29 1.13,-0.72 1.54,-1.25 0.83,-1.13 1.24,-2.94 1.24,-5.42 0,-2.12 -0.41,-3.76 -1.24,-4.93 -0.39,-0.56 -0.91,-1.02 -1.52,-1.32 -0.61,-0.31 -1.29,-0.45 -1.97,-0.42 -0.68,-0.03 -1.35,0.12 -1.95,0.42 -0.6,0.3 -1.12,0.76 -1.5,1.32 -0.81,1.16 -1.22,2.95 -1.22,5.38 z"
             id="path563"
             style="fill:#33334b" />
          <path
             class="e"
             d="m 243.05,447.28 0.19,2.63 c 0.77,-0.99 1.77,-1.78 2.9,-2.31 1.14,-0.53 2.38,-0.78 3.64,-0.74 2.41,0 4.21,0.71 5.38,2.12 1.18,1.42 1.78,3.53 1.81,6.35 v 14.7 h -6.07 v -14.55 c 0,-1.29 -0.28,-2.23 -0.84,-2.81 -0.56,-0.58 -1.49,-0.87 -2.8,-0.87 -0.78,-0.03 -1.56,0.16 -2.24,0.54 -0.68,0.39 -1.24,0.96 -1.61,1.64 v 16.05 h -6.08 v -22.75 z"
             id="path565"
             style="fill:#33334b" />
          <path
             class="e"
             d="m 277.58,458.83 h -5.03 v 11.21 h -6.31 v -30.62 h 11.38 c 3.62,0 6.41,0.81 8.37,2.42 1.96,1.61 2.94,3.89 2.94,6.84 0.07,1.84 -0.4,3.65 -1.36,5.23 -1.02,1.49 -2.45,2.65 -4.11,3.33 l 6.62,12.51 v 0.29 h -6.77 l -5.74,-11.21 z m -5.03,-5.11 h 5.09 c 1.58,0 2.81,-0.4 3.68,-1.21 0.44,-0.43 0.79,-0.95 1.01,-1.53 0.22,-0.58 0.32,-1.19 0.29,-1.81 0.03,-0.62 -0.06,-1.24 -0.27,-1.83 -0.21,-0.59 -0.54,-1.12 -0.96,-1.58 -0.82,-0.83 -2.08,-1.24 -3.78,-1.24 h -5.07 v 9.19 z"
             id="path567"
             style="fill:#33334b" />
          <path
             class="e"
             d="m 306.09,470.04 c -0.31,-0.64 -0.52,-1.33 -0.61,-2.04 -0.72,0.81 -1.6,1.45 -2.6,1.87 -0.99,0.43 -2.07,0.63 -3.14,0.59 -2.02,0.07 -4,-0.62 -5.54,-1.93 -0.71,-0.6 -1.27,-1.35 -1.65,-2.19 -0.38,-0.84 -0.57,-1.76 -0.55,-2.69 0,-2.41 0.89,-4.26 2.68,-5.55 1.79,-1.29 4.37,-1.94 7.75,-1.96 h 2.8 v -1.3 c 0.05,-0.91 -0.24,-1.81 -0.81,-2.52 -0.54,-0.63 -1.39,-0.95 -2.56,-0.95 -0.87,-0.05 -1.72,0.21 -2.41,0.74 -0.29,0.25 -0.52,0.56 -0.67,0.91 -0.15,0.35 -0.22,0.73 -0.2,1.11 h -6.08 c 0,-1.32 0.43,-2.6 1.22,-3.66 0.89,-1.18 2.08,-2.09 3.45,-2.64 1.59,-0.66 3.29,-0.98 5.01,-0.96 2.8,0 5.03,0.7 6.68,2.11 1.65,1.41 2.47,3.39 2.47,5.94 v 9.86 c 0.01,2.16 0.31,3.79 0.9,4.9 v 0.36 z m -5.03,-4.23 c 0.86,0 1.72,-0.2 2.48,-0.6 0.71,-0.35 1.3,-0.92 1.68,-1.61 v -3.91 h -2.27 c -3.04,0 -4.66,1.05 -4.86,3.15 l -0.02,0.36 c -0.01,0.35 0.06,0.7 0.19,1.02 0.14,0.32 0.34,0.61 0.6,0.85 0.61,0.52 1.39,0.78 2.19,0.74 z"
             id="path569"
             style="fill:#33334b" />
          <path
             class="e"
             d="m 315.53,441.39 c -0.01,-0.42 0.06,-0.83 0.22,-1.22 0.16,-0.39 0.39,-0.74 0.7,-1.03 0.7,-0.57 1.58,-0.88 2.49,-0.88 0.91,0 1.78,0.31 2.49,0.88 0.3,0.29 0.54,0.64 0.7,1.03 0.16,0.39 0.24,0.8 0.22,1.22 0.01,0.42 -0.06,0.84 -0.22,1.24 -0.16,0.39 -0.4,0.74 -0.71,1.03 -0.7,0.57 -1.57,0.88 -2.47,0.88 -0.9,0 -1.77,-0.31 -2.47,-0.88 -0.31,-0.29 -0.55,-0.64 -0.71,-1.03 -0.16,-0.39 -0.24,-0.81 -0.22,-1.24 z m 6.46,28.64 h -6.1 v -22.75 h 6.1 z"
             id="path571"
             style="fill:#33334b" />
          <path
             class="e"
             d="m 332.97,470.04 h -6.1 v -32.3 h 6.1 z"
             id="path573"
             style="fill:#33334b" />
          <path
             class="e"
             d="m 349.87,463.75 c 0,-0.37 -0.11,-0.73 -0.3,-1.04 -0.2,-0.31 -0.47,-0.56 -0.8,-0.72 -1.12,-0.56 -2.31,-0.94 -3.54,-1.15 -5.41,-1.14 -8.12,-3.43 -8.12,-6.9 0,-0.98 0.22,-1.95 0.65,-2.83 0.44,-0.88 1.07,-1.64 1.86,-2.23 1.68,-1.35 3.87,-2.03 6.57,-2.03 2.89,0 5.2,0.68 6.93,2.04 0.82,0.61 1.49,1.41 1.94,2.33 0.45,0.92 0.68,1.94 0.65,2.97 h -6.08 c 0.01,-0.4 -0.06,-0.79 -0.2,-1.16 -0.15,-0.37 -0.36,-0.71 -0.64,-0.99 -0.56,-0.57 -1.44,-0.85 -2.63,-0.85 -0.85,-0.05 -1.69,0.19 -2.38,0.69 -0.27,0.21 -0.48,0.48 -0.63,0.78 -0.15,0.31 -0.22,0.64 -0.21,0.98 0,0.33 0.09,0.66 0.26,0.94 0.17,0.29 0.41,0.52 0.7,0.69 1.01,0.54 2.1,0.91 3.23,1.07 1.3,0.24 2.58,0.58 3.83,1.02 3.21,1.18 4.82,3.22 4.82,6.12 0.01,1 -0.22,1.98 -0.69,2.86 -0.47,0.88 -1.15,1.63 -1.98,2.18 -1.78,1.28 -4.08,1.92 -6.9,1.92 -1.75,0.03 -3.48,-0.32 -5.08,-1.02 -1.39,-0.61 -2.59,-1.57 -3.48,-2.8 -0.82,-1.11 -1.26,-2.46 -1.26,-3.84 h 5.76 c 0,0.48 0.11,0.95 0.32,1.38 0.21,0.43 0.51,0.81 0.88,1.1 0.87,0.61 1.92,0.92 2.99,0.86 0.93,0.06 1.85,-0.17 2.64,-0.66 0.28,-0.19 0.51,-0.45 0.67,-0.76 0.16,-0.3 0.23,-0.64 0.23,-0.98 z"
             id="path575"
             style="fill:#33334b" />
        </g>
        <g
           id="g587">
          <path
             class="e"
             d="m 217.95,499.96 h -13.69 v -2.72 l 6.46,-6.89 c 0.74,-0.78 1.4,-1.63 1.97,-2.54 0.39,-0.62 0.61,-1.33 0.64,-2.06 0.04,-0.76 -0.2,-1.5 -0.67,-2.09 -0.24,-0.26 -0.54,-0.46 -0.87,-0.6 -0.33,-0.13 -0.69,-0.19 -1.04,-0.17 -0.4,-0.02 -0.8,0.06 -1.17,0.22 -0.37,0.16 -0.69,0.4 -0.95,0.71 -0.54,0.69 -0.82,1.56 -0.78,2.43 h -3.98 c -0.01,-1.17 0.29,-2.32 0.87,-3.33 0.58,-1.01 1.43,-1.83 2.46,-2.37 1.11,-0.58 2.35,-0.88 3.61,-0.86 2.06,0 3.65,0.49 4.79,1.48 1.14,0.99 1.71,2.38 1.71,4.18 -0.02,1.05 -0.28,2.09 -0.77,3.02 -0.72,1.3 -1.6,2.51 -2.63,3.58 l -4.54,4.79 h 8.59 v 3.2 z"
             id="path579"
             style="fill:#33334b" />
          <path
             class="e"
             d="m 233.54,491.7 c 0,2.76 -0.57,4.87 -1.71,6.34 -1.14,1.46 -2.82,2.19 -5.02,2.19 -2.18,0 -3.84,-0.72 -4.99,-2.15 -1.15,-1.44 -1.74,-3.49 -1.77,-6.17 v -3.68 c 0,-2.79 0.58,-4.91 1.74,-6.35 1.16,-1.44 2.82,-2.17 5,-2.17 2.18,0 3.84,0.72 4.99,2.15 1.15,1.43 1.74,3.49 1.77,6.17 v 3.67 z m -3.96,-4.04 c 0,-1.66 -0.23,-2.86 -0.68,-3.62 -0.21,-0.37 -0.53,-0.67 -0.9,-0.87 -0.37,-0.2 -0.8,-0.29 -1.22,-0.27 -0.41,-0.03 -0.82,0.06 -1.18,0.25 -0.36,0.19 -0.67,0.48 -0.88,0.83 -0.44,0.72 -0.68,1.84 -0.71,3.37 v 4.86 c 0,1.63 0.22,2.84 0.67,3.63 0.21,0.38 0.51,0.7 0.89,0.91 0.38,0.21 0.81,0.31 1.24,0.28 0.42,0.03 0.84,-0.06 1.21,-0.26 0.37,-0.2 0.68,-0.51 0.88,-0.88 0.43,-0.76 0.65,-1.92 0.67,-3.49 v -4.75 z"
             id="path581"
             style="fill:#33334b" />
          <path
             class="e"
             d="m 249.62,499.96 h -13.69 v -2.72 l 6.46,-6.89 c 0.74,-0.78 1.4,-1.63 1.97,-2.54 0.39,-0.62 0.61,-1.33 0.64,-2.06 0.04,-0.76 -0.2,-1.5 -0.67,-2.09 -0.24,-0.26 -0.54,-0.46 -0.87,-0.6 -0.33,-0.13 -0.69,-0.19 -1.04,-0.17 -0.4,-0.02 -0.8,0.06 -1.17,0.22 -0.37,0.16 -0.69,0.4 -0.95,0.71 -0.54,0.69 -0.82,1.56 -0.77,2.43 h -3.98 c -0.01,-1.17 0.29,-2.32 0.87,-3.33 0.58,-1.01 1.43,-1.83 2.46,-2.37 1.11,-0.58 2.35,-0.88 3.61,-0.86 2.06,0 3.66,0.49 4.79,1.48 1.14,0.99 1.71,2.38 1.71,4.18 -0.02,1.05 -0.28,2.09 -0.77,3.02 -0.71,1.3 -1.6,2.51 -2.63,3.58 l -4.54,4.79 h 8.59 v 3.2 z"
             id="path583"
             style="fill:#33334b" />
          <path
             class="e"
             d="m 265.46,499.96 h -13.69 v -2.72 l 6.46,-6.89 c 0.74,-0.78 1.4,-1.63 1.97,-2.54 0.39,-0.62 0.61,-1.33 0.64,-2.06 0.04,-0.76 -0.2,-1.5 -0.67,-2.09 -0.24,-0.26 -0.54,-0.46 -0.87,-0.6 -0.33,-0.13 -0.69,-0.19 -1.04,-0.17 -0.4,-0.02 -0.8,0.06 -1.17,0.22 -0.37,0.16 -0.69,0.4 -0.95,0.71 -0.54,0.69 -0.82,1.56 -0.77,2.43 h -3.98 c -0.01,-1.17 0.29,-2.32 0.87,-3.33 0.58,-1.01 1.43,-1.83 2.46,-2.37 1.11,-0.58 2.35,-0.88 3.6,-0.86 2.06,0 3.66,0.49 4.79,1.48 1.14,0.99 1.71,2.38 1.71,4.18 -0.02,1.05 -0.28,2.09 -0.77,3.02 -0.71,1.31 -1.6,2.51 -2.63,3.58 l -4.54,4.79 h 8.59 v 3.2 z"
             id="path585"
             style="fill:#33334b" />
        </g>
      </g>
    </g>
  </g>
</svg>
